Coordinates
version=1
nRows=16
nColumns=42
inDegrees=yes

Units are S.I. units (second, meters, Newtons, ...)
If the header above contains a line with 'inDegrees', this indicates whether rotational values are in degrees (yes) or radians (no).

endheader
time	pelvis_tilt	pelvis_list	pelvis_rotation	pelvis_tx	pelvis_ty	pelvis_tz	hip_flexion_r	hip_adduction_r	hip_rotation_r	knee_angle_r	knee_adduction_r	knee_angle_r_beta	ankle_angle_r	subtalar_angle_r	mtp_angle_r	hip_flexion_l	hip_adduction_l	hip_rotation_l	knee_angle_l	knee_adduction_l	knee_angle_l_beta	ankle_angle_l	subtalar_angle_l	mtp_angle_l	lumbar_extension	lumbar_bending	lumbar_rotation	arm_flex_r	arm_add_r	arm_rot_r	elbow_flex_r	pro_sup_r	wrist_flex_r	wrist_dev_r	arm_flex_l	arm_add_l	arm_rot_l	elbow_flex_l	pro_sup_l	wrist_flex_l	wrist_dev_l
      0.00000000	     -0.67883496	     -1.46388475	     -0.35843538	     -1.07296649	      0.93702301	     -0.25919491	     30.23225583	      1.48696569	    -14.74266815	     21.56630948	     -4.00977247	      0.37640311	      0.49211661	     -0.85838902	     -9.24693159	    -10.35071361	      0.14943808	     -4.82663333	     29.78998046	     -2.56627514	      0.51993324	     11.76740231	     -7.14165111	     -9.24693159	    -10.59603655	      3.53758774	     -0.54081260	    -10.87780765	     -9.77009788	    -11.16686518	     24.33339036	     90.00000001	      0.00000000	      0.00000000	     12.58439788	    -11.31497769	     16.33638956	     45.73480615	     90.00000001	      0.00000000	      0.00000000
      0.01000000	     -0.24214560	     -2.00288410	     -0.39564281	     -1.05674675	      0.93787253	     -0.25786409	     29.69688540	      2.28654553	    -14.19223346	     23.24430283	     -4.32198902	      0.40568962	      0.16094668	     -1.41626827	     -9.22578041	    -10.16960669	     -0.68917271	     -5.08733352	     32.61877765	     -2.56418537	      0.56930507	      9.04284903	     -8.02068140	     -9.22578041	    -10.99676738	      4.31936677	     -0.29407361	    -10.78652888	     -9.82881927	    -11.37893374	     24.13939547	     90.00000001	      0.00000000	      0.00000000	     12.43059688	    -10.82698231	     15.62867274	     45.39777973	     90.00000001	      0.00000000	      0.00000000
      0.02000000	     -0.47847531	     -2.78729605	     -0.37202215	     -1.04133559	      0.93841399	     -0.25625336	     29.56466090	      3.49545726	    -12.36277832	     24.34848260	     -4.19204050	      0.42496119	     -1.00136092	     -4.39864408	     -9.14070688	     -8.88546967	     -1.91009826	     -4.84836725	     35.97082983	     -2.20933817	      0.62780942	      5.87886506	    -10.32488311	     -9.14070688	    -10.71294414	      5.35793610	     -0.11729059	    -10.55242905	     -9.78808548	    -12.11259240	     23.86148771	     90.00000001	      0.00000000	      0.00000000	     12.11582947	    -10.09670991	     14.13219791	     44.96633518	     90.00000001	      0.00000000	      0.00000000
      0.03000000	     -0.06638175	     -3.33950676	     -0.40030003	     -1.02546249	      0.94002325	     -0.25480295	     28.78409676	      4.34235662	    -11.59828177	     25.61522564	     -4.27677793	      0.44707003	     -0.96242190	     -5.23909973	     -9.11795966	     -8.22351454	     -2.82236630	     -5.44119191	     39.12164460	     -2.39832089	      0.68280151	      2.52135031	    -11.30098496	     -9.11795966	    -11.13975205	      6.11123075	      0.21348684	    -10.45778927	     -9.82064255	    -12.31411676	     23.87171848	     90.00000001	      0.00000000	      0.00000000	     11.85734248	     -9.61164143	     13.39392321	     44.71490374	     90.00000001	      0.00000000	      0.00000000
      0.04000000	     -0.33883706	     -4.09662618	     -0.49132127	     -1.01055607	      0.94116300	     -0.25292107	     28.48401990	      5.55647310	     -9.91203866	     26.33470254	     -4.01130974	      0.45962727	     -1.86209728	     -8.05332752	     -9.05075460	     -6.50216256	     -4.09902483	     -5.36169846	     42.69501248	     -1.98508291	      0.74516854	     -0.82530812	    -13.80600083	     -9.05075460	    -10.88137378	      7.05328242	      0.55239342	    -10.23788717	     -9.77909075	    -12.79916319	     23.81440634	     90.00000001	      0.00000000	      0.00000000	     11.48608100	     -8.93026910	     11.84027082	     44.36259359	     90.00000001	      0.00000000	      0.00000000
      0.05000000	     -0.24865633	     -4.66900961	     -0.54409814	     -0.99556291	      0.94298631	     -0.25129725	     27.73779424	      6.46165207	     -8.89498840	     26.97503260	     -3.83977902	      0.47080313	     -1.89138285	     -9.68360795	     -8.99433529	     -5.06256012	     -5.10659916	     -5.84612485	     46.02017096	     -2.13475849	      0.80320351	     -4.02380908	    -15.36027003	     -8.99433529	    -11.03086653	      7.77415583	      0.93279068	    -10.06655880	     -9.75185492	    -13.03318458	     23.94507872	     90.00000001	      0.00000000	      0.00000000	     11.14573074	     -8.42105772	     10.82730723	     44.15843306	     90.00000001	      0.00000000	      0.00000000
      0.06000000	     -0.20898916	     -5.18962074	     -0.55091161	     -0.98091108	      0.94498760	     -0.24973767	     26.95213060	      7.27079865	     -8.28166470	     27.39090045	     -3.76860994	      0.47806140	     -1.66939580	    -10.76663410	     -8.94305566	     -3.40105639	     -6.08073440	     -6.34901159	     49.26761717	     -2.37701540	      0.85988213	     -6.66271189	    -16.69936198	     -8.94305566	    -11.14680034	      8.41732295	      1.27778408	     -9.86708649	     -9.71550892	    -13.18486937	     24.15053237	     90.00000001	      0.00000000	      0.00000000	     10.77637758	     -7.94005583	      9.78992053	     44.00328471	     90.00000001	      0.00000000	      0.00000000
      0.07000000	     -0.16920284	     -5.64058401	     -0.54419469	     -0.96645965	      0.94715889	     -0.24824874	     26.06126726	      7.97733645	     -8.00912989	     27.57565660	     -3.79283926	      0.48128600	     -1.18056652	    -11.29358291	     -8.90251510	     -1.62700016	     -6.97342622	     -7.07335726	     52.30964724	     -2.87468396	      0.91297557	     -8.64972810	    -17.64746608	     -8.90251510	    -11.27264826	      8.96351821	      1.62746410	     -9.66370336	     -9.68001474	    -13.25515245	     24.44404303	     90.00000001	      0.00000000	      0.00000000	     10.38155015	     -7.51859684	      8.85561442	     43.90864749	     90.00000001	      0.00000000	      0.00000000
      0.08000000	     -0.21968512	     -6.03517071	     -0.48983364	     -0.95236743	      0.94935739	     -0.24679085	     25.16883571	      8.59081622	     -7.98803215	     27.52258665	     -3.87084700	      0.48035976	     -0.54086486	    -11.54895095	     -8.84665297	      0.37392417	     -7.80177251	     -7.87589394	     55.15389036	     -3.55689421	      0.96261698	     -9.81349789	    -18.24825628	     -8.84665297	    -11.30765259	      9.41674477	      1.94390746	     -9.44172795	     -9.61868582	    -13.22203706	     24.78359270	     90.00000001	      0.00000000	      0.00000000	      9.97883543	     -7.13801160	      7.94459659	     43.84602360	     90.00000001	      0.00000000	      0.00000000
      0.09000000	     -0.03225016	     -6.19984730	     -0.41579197	     -0.93829979	      0.95208854	     -0.24570629	     23.89760565	      8.86455699	     -8.06535983	     27.30662186	     -3.86272030	      0.47659046	      0.45921808	    -11.32440993	     -8.82450544	      2.10618888	     -8.27207660	     -8.83917854	     57.51198631	     -4.47492950	      1.00377352	    -10.43401307	    -18.66053971	     -8.82450544	    -11.61652407	      9.63133082	      2.24406211	     -9.16252734	     -9.57075714	    -13.18421413	     25.18784427	     90.00000001	      0.00000000	      0.00000000	      9.57628197	     -6.90435701	      7.43201407	     43.84985305	     90.00000001	      0.00000000	      0.00000000
      0.10000000	     -0.10312318	     -6.43088541	     -0.38626021	     -0.92454686	      0.95454919	     -0.24438340	     22.82462879	      9.28466059	     -8.32460094	     26.82386708	     -4.03907628	      0.46816480	      1.24736527	    -10.84833058	     -8.79621258	      4.22497052	     -8.87148614	    -10.02398462	     59.66808849	     -5.54020510	      1.04140460	    -10.34782511	    -18.86754170	     -8.79621258	    -11.64059153	      9.86670794	      2.60843646	     -8.92192679	     -9.51648407	    -13.04207748	     25.62935373	     90.00000001	      0.00000000	      0.00000000	      9.12879450	     -6.62581702	      6.69867553	     43.87702685	     90.00000001	      0.00000000	      0.00000000
      0.11000000	     -0.13914543	     -6.48941355	     -0.32522629	     -0.91097923	      0.95716583	     -0.24329935	     21.67024741	      9.47180547	     -8.56315020	     26.27230845	     -4.15880095	      0.45853828	      2.01475641	    -10.30968568	     -8.76976863	      6.29220384	     -9.21943849	    -11.09928352	     61.39967632	     -6.53835790	      1.07162651	     -9.67947168	    -19.01571586	     -8.76976863	    -11.70322691	      9.91500755	      2.90663399	     -8.61654902	     -9.45797428	    -12.81362910	     26.07176656	     90.00000001	      0.00000000	      0.00000000	      8.67676489	     -6.44402805	      6.16312035	     43.89411741	     90.00000001	      0.00000000	      0.00000000
      0.12000000	     -0.27232528	     -6.49801799	     -0.32858110	     -0.89757119	      0.95967553	     -0.24212557	     20.59885408	      9.61905773	     -8.84910676	     25.65998753	     -4.31001262	      0.44785127	      2.76006875	     -9.52734609	     -8.73028583	      8.46597307	     -9.51010717	    -12.25192066	     62.77133386	     -7.51860925	      1.09556645	     -8.70901683	    -19.10172086	     -8.73028583	    -11.66208681	      9.87924907	      3.24993464	     -8.31730078	     -9.43202579	    -12.37102868	     26.55971797	     90.00000001	      0.00000000	      0.00000000	      8.19122822	     -6.31178428	      5.61886771	     43.93595863	     90.00000001	      0.00000000	      0.00000000
      0.13000000	     -0.29525630	     -6.30267460	     -0.23964383	     -0.88420784	      0.96242097	     -0.24131466	     19.32755316	      9.46727314	     -8.95615084	     24.92987266	     -4.28344809	      0.43510836	      3.55084799	     -8.91695179	     -8.70526795	     10.45448913	     -9.46889627	    -13.18894034	     63.64383172	     -8.33410970	      1.11079441	     -7.47496313	    -19.15612536	     -8.70526795	    -11.72741727	      9.63505737	      3.47900829	     -7.95392477	     -9.37085759	    -12.06179372	     27.03626072	     90.00000001	      0.00000000	      0.00000000	      7.70208316	     -6.30498548	      5.39087145	     44.00153148	     90.00000001	      0.00000000	      0.00000000
      0.14000000	     -0.35014222	     -6.01939393	     -0.15810687	     -0.87098215	      0.96507460	     -0.24048213	     18.07105044	      9.25978470	     -8.95938429	     24.14618062	     -4.29783263	      0.42143035	      4.18951583	     -8.36224514	     -8.68797732	     12.42169754	     -9.27543535	    -13.94369985	     64.10624317	     -8.94084859	      1.11886501	     -6.15362163	    -19.20358196	     -8.68797732	    -11.75684399	      9.27577484	      3.67895950	     -7.55442369	     -9.28683595	    -11.77224678	     27.54199514	     90.00000001	      0.00000000	      0.00000000	      7.19966733	     -6.39206823	      5.24270784	     44.04536773	     90.00000001	      0.00000000	      0.00000000
      0.15000000	     -0.47789327	     -5.73020226	     -0.17020700	     -0.85772794	      0.96748934	     -0.23961465	     16.89358509	      9.03599430	     -8.88233002	     23.37280538	     -4.24085589	      0.40793241	      4.85965943	     -7.74911185	     -8.66903237	     14.38228939	     -9.07599287	    -14.66559798	     64.20947646	     -9.34944484	      1.12066678	     -4.82142893	    -19.18447804	     -8.66903237	    -11.69572220	      8.89626081	      3.95778006	     -7.19084951	     -9.26059968	    -11.32976911	     28.07364791	     90.00000001	      0.00000000	      0.00000000	      6.61925712	     -6.51503018	      5.09015962	     44.15575418	     90.00000001	      0.00000000	      0.00000000
